<?xml version="1.0" encoding="UTF-8" standalone="no"?>
<!DOCTYPE svg PUBLIC "-//W3C//DTD SVG 1.1//EN"
 "http://www.w3.org/Graphics/SVG/1.1/DTD/svg11.dtd">
<!-- Generated by graphviz version 12.2.0 (20241103.1931)
 -->
<!-- Title: G Pages: 1 -->
<svg width="1287pt" height="152pt"
 viewBox="0.00 0.00 1286.50 152.00" xmlns="http://www.w3.org/2000/svg" xmlns:xlink="http://www.w3.org/1999/xlink">
<g id="graph0" class="graph" transform="scale(1 1) rotate(0) translate(4 148)">
<title>G</title>
<polygon fill="white" stroke="none" points="-4,4 -4,-148 1282.5,-148 1282.5,4 -4,4"/>
<!-- azurerm_linux_virtual_machine.web -->
<g id="node1" class="node">
<title>azurerm_linux_virtual_machine.web</title>
<polygon fill="none" stroke="black" points="1278.5,-144 1045.75,-144 1045.75,-108 1278.5,-108 1278.5,-144"/>
<text text-anchor="middle" x="1162.12" y="-120.2" font-family="sans-serif" font-size="14.00">azurerm_linux_virtual_machine.web</text>
</g>
<!-- azurerm_network_interface.web -->
<g id="node2" class="node">
<title>azurerm_network_interface.web</title>
<polygon fill="none" stroke="black" points="1009.75,-144 801,-144 801,-108 1009.75,-108 1009.75,-144"/>
<text text-anchor="middle" x="905.38" y="-120.2" font-family="sans-serif" font-size="14.00">azurerm_network_interface.web</text>
</g>
<!-- azurerm_linux_virtual_machine.web&#45;&gt;azurerm_network_interface.web -->
<g id="edge1" class="edge">
<title>azurerm_linux_virtual_machine.web&#45;&gt;azurerm_network_interface.web</title>
<path fill="none" stroke="black" d="M1045.3,-126C1037.44,-126 1029.53,-126 1021.67,-126"/>
<polygon fill="black" stroke="black" points="1021.73,-122.5 1011.73,-126 1021.73,-129.5 1021.73,-122.5"/>
</g>
<!-- azurerm_subnet.web -->
<g id="node7" class="node">
<title>azurerm_subnet.web</title>
<polygon fill="none" stroke="black" points="689.25,-144 546.5,-144 546.5,-108 689.25,-108 689.25,-144"/>
<text text-anchor="middle" x="617.88" y="-120.2" font-family="sans-serif" font-size="14.00">azurerm_subnet.web</text>
</g>
<!-- azurerm_network_interface.web&#45;&gt;azurerm_subnet.web -->
<g id="edge2" class="edge">
<title>azurerm_network_interface.web&#45;&gt;azurerm_subnet.web</title>
<path fill="none" stroke="black" d="M800.9,-126C767.93,-126 731.92,-126 700.7,-126"/>
<polygon fill="black" stroke="black" points="700.94,-122.5 690.94,-126 700.94,-129.5 700.94,-122.5"/>
</g>
<!-- azurerm_resource_group.web -->
<g id="node3" class="node">
<title>azurerm_resource_group.web</title>
<polygon fill="none" stroke="black" points="196.75,-117 0,-117 0,-81 196.75,-81 196.75,-117"/>
<text text-anchor="middle" x="98.38" y="-93.2" font-family="sans-serif" font-size="14.00">azurerm_resource_group.web</text>
</g>
<!-- azurerm_storage_account.web -->
<g id="node4" class="node">
<title>azurerm_storage_account.web</title>
<polygon fill="none" stroke="black" points="434.75,-90 232.75,-90 232.75,-54 434.75,-54 434.75,-90"/>
<text text-anchor="middle" x="333.75" y="-66.2" font-family="sans-serif" font-size="14.00">azurerm_storage_account.web</text>
</g>
<!-- azurerm_storage_account.web&#45;&gt;azurerm_resource_group.web -->
<g id="edge3" class="edge">
<title>azurerm_storage_account.web&#45;&gt;azurerm_resource_group.web</title>
<path fill="none" stroke="black" d="M232.42,-83.61C224.45,-84.53 216.37,-85.46 208.33,-86.39"/>
<polygon fill="black" stroke="black" points="208.06,-82.9 198.53,-87.53 208.87,-89.86 208.06,-82.9"/>
</g>
<!-- azurerm_storage_account_static_website.web -->
<g id="node5" class="node">
<title>azurerm_storage_account_static_website.web</title>
<polygon fill="none" stroke="black" points="765,-90 470.75,-90 470.75,-54 765,-54 765,-90"/>
<text text-anchor="middle" x="617.88" y="-66.2" font-family="sans-serif" font-size="14.00">azurerm_storage_account_static_website.web</text>
</g>
<!-- azurerm_storage_account_static_website.web&#45;&gt;azurerm_storage_account.web -->
<g id="edge4" class="edge">
<title>azurerm_storage_account_static_website.web&#45;&gt;azurerm_storage_account.web</title>
<path fill="none" stroke="black" d="M470.44,-72C462.42,-72 454.42,-72 446.55,-72"/>
<polygon fill="black" stroke="black" points="446.63,-68.5 436.63,-72 446.63,-75.5 446.63,-68.5"/>
</g>
<!-- azurerm_storage_blob.web -->
<g id="node6" class="node">
<title>azurerm_storage_blob.web</title>
<polygon fill="none" stroke="black" points="708,-36 527.75,-36 527.75,0 708,0 708,-36"/>
<text text-anchor="middle" x="617.88" y="-12.2" font-family="sans-serif" font-size="14.00">azurerm_storage_blob.web</text>
</g>
<!-- azurerm_storage_blob.web&#45;&gt;azurerm_storage_account.web -->
<g id="edge5" class="edge">
<title>azurerm_storage_blob.web&#45;&gt;azurerm_storage_account.web</title>
<path fill="none" stroke="black" d="M527.59,-34.3C508.8,-37.79 489.12,-41.48 470.75,-45 460.11,-47.04 449.01,-49.2 437.94,-51.36"/>
<polygon fill="black" stroke="black" points="437.52,-47.88 428.38,-53.24 438.87,-54.75 437.52,-47.88"/>
</g>
<!-- azurerm_virtual_network.web -->
<g id="node8" class="node">
<title>azurerm_virtual_network.web</title>
<polygon fill="none" stroke="black" points="430.25,-144 237.25,-144 237.25,-108 430.25,-108 430.25,-144"/>
<text text-anchor="middle" x="333.75" y="-120.2" font-family="sans-serif" font-size="14.00">azurerm_virtual_network.web</text>
</g>
<!-- azurerm_subnet.web&#45;&gt;azurerm_virtual_network.web -->
<g id="edge6" class="edge">
<title>azurerm_subnet.web&#45;&gt;azurerm_virtual_network.web</title>
<path fill="none" stroke="black" d="M546.05,-126C514.53,-126 476.73,-126 441.87,-126"/>
<polygon fill="black" stroke="black" points="442.18,-122.5 432.18,-126 442.18,-129.5 442.18,-122.5"/>
</g>
<!-- azurerm_virtual_network.web&#45;&gt;azurerm_resource_group.web -->
<g id="edge7" class="edge">
<title>azurerm_virtual_network.web&#45;&gt;azurerm_resource_group.web</title>
<path fill="none" stroke="black" d="M236.82,-114.9C227.52,-113.83 218.04,-112.73 208.63,-111.64"/>
<polygon fill="black" stroke="black" points="209.04,-108.16 198.7,-110.49 208.24,-115.12 209.04,-108.16"/>
</g>
</g>
</svg>
